<?xml version="1.0" encoding="UTF-8" standalone="no"?>
<!-- Created with Inkscape (http://www.inkscape.org/) -->

<svg
   xmlns:dc="http://purl.org/dc/elements/1.1/"
   xmlns:cc="http://creativecommons.org/ns#"
   xmlns:rdf="http://www.w3.org/1999/02/22-rdf-syntax-ns#"
   xmlns:svg="http://www.w3.org/2000/svg"
   xmlns="http://www.w3.org/2000/svg"
   xmlns:sodipodi="http://sodipodi.sourceforge.net/DTD/sodipodi-0.dtd"
   xmlns:inkscape="http://www.inkscape.org/namespaces/inkscape"
   width="64px"
   height="64px"
   id="svg4224"
   version="1.1"
   inkscape:version="0.48.4 r9939"
   sodipodi:docname="New document 17">
  <defs
     id="defs4226" />
  <sodipodi:namedview
     id="base"
     pagecolor="#ffffff"
     bordercolor="#666666"
     borderopacity="1.0"
     inkscape:pageopacity="0.0"
     inkscape:pageshadow="2"
     inkscape:zoom="2.75"
     inkscape:cx="51.831141"
     inkscape:cy="33.036219"
     inkscape:current-layer="layer1"
     showgrid="true"
     inkscape:document-units="px"
     inkscape:grid-bbox="true"
     inkscape:window-width="510"
     inkscape:window-height="402"
     inkscape:window-x="284"
     inkscape:window-y="760"
     inkscape:window-maximized="0" />
  <metadata
     id="metadata4229">
    <rdf:RDF>
      <cc:Work
         rdf:about="">
        <dc:format>image/svg+xml</dc:format>
        <dc:type
           rdf:resource="http://purl.org/dc/dcmitype/StillImage" />
        <dc:title></dc:title>
      </cc:Work>
    </rdf:RDF>
  </metadata>
  <g
     id="layer1"
     inkscape:label="Layer 1"
     inkscape:groupmode="layer">
    <g
       id="g4188"
       transform="matrix(0.13562365,0,0,0.13562365,-40.403179,-208.55039)">
      <path
         transform="matrix(1.1237624,0,0,1.1237624,47.50741,575.49552)"
         d="m 638.41641,1066.5043 c 0,112.6941 -91.35666,204.0508 -204.05081,204.0508 -112.69415,0 -204.05081,-91.3567 -204.05081,-204.0508 0,-112.69418 91.35666,-204.05084 204.05081,-204.05084 112.69415,0 204.05081,91.35666 204.05081,204.05084 z"
         sodipodi:ry="204.05081"
         sodipodi:rx="204.05081"
         sodipodi:cy="1066.5043"
         sodipodi:cx="434.3656"
         id="path3961-3"
         style="fill:#ffffff;fill-opacity:1;fill-rule:evenodd;stroke:none"
         sodipodi:type="arc" />
      <path
         inkscape:connector-curvature="0"
         id="path3961-1-7"
         d="m 535.44364,1544.696 c -98.10255,0 -181.81441,61.6146 -214.5625,148.25 24.98617,-8.2791 51.65467,-12.7812 79.34375,-12.7812 139.66864,-10e-5 253.78125,114.1126 253.78125,253.7812 0,12.932 -0.98889,25.64 -2.875,38.0625 67.96246,-39.7945 113.625,-113.5571 113.625,-198 0,-126.6415 -102.67105,-229.3125 -229.3125,-229.3125 z m -135.21875,214.875 c -34.58593,0 -66.70593,9.9334 -93.71875,27.0938 0.61585,11.3016 2.02436,22.4109 4.21875,33.2187 19.1076,-8.1831 40.11657,-12.7187 62.125,-12.7187 87.40086,0 158.9375,71.5365 158.9375,158.9374 0,12.739 -1.53923,25.1388 -4.40625,37.0313 2.67221,0.092 5.36782,0.1563 8.0625,0.1563 8.63605,0 17.14316,-0.4764 25.53125,-1.4063 8.75587,-20.8509 13.625,-43.7928 13.625,-67.9375 0,-96.7604 -77.61461,-174.375 -174.375,-174.375 z m -27.375,111.125 c -14.68153,0 -28.53701,3.2527 -40.90625,9.0625 27.5702,52.9378 75.17955,93.7827 132.78125,112.4375 2.31488,-8.2825 3.5625,-17.0269 3.5625,-26.0938 0,-53.077 -42.36053,-95.4062 -95.4375,-95.4062 z"
         style="fill:#ff6600;fill-opacity:1;fill-rule:evenodd;stroke:none" />
    </g>
  </g>
</svg>
