<?xml version="1.0" encoding="UTF-8" standalone="no"?>
<!-- Created with Inkscape (http://www.inkscape.org/) -->

<svg
   xmlns:dc="http://purl.org/dc/elements/1.1/"
   xmlns:cc="http://creativecommons.org/ns#"
   xmlns:rdf="http://www.w3.org/1999/02/22-rdf-syntax-ns#"
   xmlns:svg="http://www.w3.org/2000/svg"
   xmlns="http://www.w3.org/2000/svg"
   xmlns:sodipodi="http://sodipodi.sourceforge.net/DTD/sodipodi-0.dtd"
   xmlns:inkscape="http://www.inkscape.org/namespaces/inkscape"
   width="135.79265"
   height="45.75"
   id="svg2"
   version="1.1"
   inkscape:version="0.48.4 r9939"
   sodipodi:docname="New document 1">
  <defs
     id="defs4" />
  <sodipodi:namedview
     id="base"
     pagecolor="#ffffff"
     bordercolor="#666666"
     borderopacity="1.0"
     inkscape:pageopacity="0.0"
     inkscape:pageshadow="2"
     inkscape:zoom="5.6"
     inkscape:cx="97.028612"
     inkscape:cy="4.6239322"
     inkscape:document-units="px"
     inkscape:current-layer="text2985"
     showgrid="false"
     fit-margin-top="1"
     fit-margin-left="1"
     fit-margin-right="1"
     fit-margin-bottom="1"
     inkscape:window-width="1366"
     inkscape:window-height="713"
     inkscape:window-x="0"
     inkscape:window-y="29"
     inkscape:window-maximized="1" />
  <metadata
     id="metadata7">
    <rdf:RDF>
      <cc:Work
         rdf:about="">
        <dc:format>image/svg+xml</dc:format>
        <dc:type
           rdf:resource="http://purl.org/dc/dcmitype/StillImage" />
        <dc:title></dc:title>
      </cc:Work>
    </rdf:RDF>
  </metadata>
  <g
     inkscape:label="Layer 1"
     inkscape:groupmode="layer"
     id="layer1"
     transform="translate(-74.388866,-170.98136)">
    <g
       style="font-size:56px;font-style:normal;font-variant:normal;font-weight:normal;font-stretch:normal;line-height:125%;letter-spacing:0px;word-spacing:0px;fill:#000000;fill-opacity:1;stroke:none;font-family:TeX Gyre Heros;-inkscape-font-specification:TeX Gyre Heros"
       id="text2985">
      <g
         id="g6331"
         transform="translate(1.0993606,-271.70086)">
        <g
           id="g6322">
          <path
             d="m 91.68013,449.42441 c -5.031264,4e-5 -7.546887,2.50654 -7.546875,7.51953 l 0,1.42187 5.496094,0 c 0.783836,3e-5 1.4492,0.28259 1.996094,0.84766 0.565084,0.5469 0.847636,1.21227 0.847656,1.99609 -2e-5,0.80211 -0.282572,1.48571 -0.847656,2.05079 -0.546894,0.54689 -1.212258,0.82033 -1.996094,0.82031 l -5.496094,0 0,20.50781 c -1.2e-5,0.38282 -0.07293,0.7474 -0.21875,1.09375 -0.145845,0.34636 -0.346365,0.65625 -0.601562,0.92969 -0.255219,0.25521 -0.556,0.45573 -0.902344,0.60156 -0.346364,0.14583 -0.720062,0.21875 -1.121094,0.21875 -0.40105,0 -0.774748,-0.0729 -1.121094,-0.21875 -0.346361,-0.14583 -0.647142,-0.34635 -0.902343,-0.60156 -0.255215,-0.27344 -0.455736,-0.58333 -0.601563,-0.92969 -0.145839,-0.34635 -0.218756,-0.71093 -0.21875,-1.09375 l 0,-20.50781 -1.3125,0 c -0.820316,2e-5 -1.503909,-0.27342 -2.050781,-0.82031 -0.528648,-0.54685 -0.792971,-1.23045 -0.792969,-2.05079 -2e-6,-0.82028 0.264321,-1.49476 0.792969,-2.02343 0.546872,-0.54685 1.230465,-0.82029 2.050781,-0.82032 l 1.3125,0 0,-1.42187 c -6e-6,-8.82288 4.411448,-13.23433 13.234375,-13.23438 0.783834,5e-5 1.449198,0.2826 1.996094,0.84766 0.565082,0.54692 0.847634,1.21228 0.847656,1.99609 -2.2e-5,0.80213 -0.282574,1.48572 -0.847656,2.05079 -0.546896,0.54691 -1.21226,0.82035 -1.996094,0.82031"
             style="letter-spacing:-2.76999998px"
             id="path6308"
             inkscape:connector-curvature="0" />
          <path
             d="m 101.54294,451.36581 c -1e-5,0.92973 -0.32813,1.72269 -0.98437,2.37891 -0.656261,0.65628 -1.449229,0.98441 -2.378909,0.98438 -0.929693,3e-5 -1.722661,-0.3281 -2.378906,-0.98438 -0.656254,-0.65622 -0.984379,-1.44918 -0.984375,-2.37891 -4e-6,-0.92965 0.328121,-1.72261 0.984375,-2.3789 0.656245,-0.65621 1.449213,-0.98434 2.378906,-0.98438 0.92968,4e-5 1.722648,0.32817 2.378909,0.98438 0.65624,0.65629 0.98436,1.44925 0.98437,2.3789 m -6.207029,33.19532 0,-24.88282 c -4e-6,-0.80205 0.273433,-1.47653 0.820312,-2.02343 0.565099,-0.56508 1.239578,-0.84763 2.023438,-0.84766 0.783847,3e-5 1.449211,0.28258 1.996089,0.84766 0.5651,0.5469 0.85677,1.22138 0.875,2.02343 l 0,24.88282 c -0.0182,0.80208 -0.3099,1.48568 -0.875,2.05078 -0.546878,0.54687 -1.212242,0.82031 -1.996089,0.82031 -0.78386,0 -1.458339,-0.27344 -2.023438,-0.82031 -0.546879,-0.5651 -0.820316,-1.2487 -0.820312,-2.05078"
             style="letter-spacing:-4.23000002px"
             id="path6310"
             inkscape:connector-curvature="0" />
          <path
             d="m 110.43794,451.36581 c -1e-5,0.92973 -0.32813,1.72269 -0.98437,2.37891 -0.65626,0.65628 -1.44923,0.98441 -2.37891,0.98438 -0.92969,3e-5 -1.72266,-0.3281 -2.3789,-0.98438 -0.65626,-0.65622 -0.98438,-1.44918 -0.98438,-2.37891 0,-0.92965 0.32812,-1.72261 0.98438,-2.3789 0.65624,-0.65621 1.44921,-0.98434 2.3789,-0.98438 0.92968,4e-5 1.72265,0.32817 2.37891,0.98438 0.65624,0.65629 0.98436,1.44925 0.98437,2.3789 m -6.20703,33.19532 0,-24.88282 c 0,-0.80205 0.27343,-1.47653 0.82031,-2.02343 0.5651,-0.56508 1.23958,-0.84763 2.02344,-0.84766 0.78385,3e-5 1.44921,0.28258 1.9961,0.84766 0.56509,0.5469 0.85676,1.22138 0.875,2.02343 l 0,24.88282 c -0.0182,0.80208 -0.30991,1.48568 -0.875,2.05078 -0.54689,0.54687 -1.21225,0.82031 -1.9961,0.82031 -0.78386,0 -1.45834,-0.27344 -2.02344,-0.82031 -0.54688,-0.5651 -0.82031,-1.2487 -0.82031,-2.05078"
             style="letter-spacing:-3.4000001px"
             id="path6312"
             inkscape:connector-curvature="0" />
          <path
             d="m 137.33482,472.11972 c -3e-5,-1.31248 -0.25524,-2.54295 -0.76563,-3.69141 -0.49221,-1.16664 -1.17581,-2.18747 -2.05078,-3.0625 -0.85679,-0.87497 -1.86851,-1.56768 -3.03516,-2.07812 -1.16668,-0.51039 -2.41538,-0.7656 -3.74609,-0.76563 -1.34897,3e-5 -2.60679,0.25524 -3.77344,0.76563 -1.16668,0.51044 -2.17839,1.20315 -3.03515,2.07812 -0.85678,0.8568 -1.54038,1.86851 -2.05079,3.03516 -0.49219,1.16668 -0.73828,2.40627 -0.73828,3.71875 0,1.31251 0.24609,2.5521 0.73828,3.71875 0.51041,1.16668 1.19401,2.18751 2.05079,3.0625 0.85676,0.85678 1.86847,1.54037 3.03515,2.05078 1.16665,0.51042 2.42447,0.76563 3.77344,0.76563 1.33071,0 2.57941,-0.25521 3.74609,-0.76563 1.16665,-0.51041 2.17837,-1.20312 3.03516,-2.07812 0.87497,-0.87499 1.55857,-1.88671 2.05078,-3.03516 0.51039,-1.16665 0.7656,-2.40624 0.76563,-3.71875 m -9.59766,-15.3125 c 3.62758,3e-5 6.8268,1.12112 9.59766,3.36328 l 0,-13.64453 c -3e-5,-0.82027 0.26429,-1.49475 0.79296,-2.02344 0.54685,-0.54683 1.23044,-0.82027 2.05079,-0.82031 0.80205,4e-5 1.47653,0.27348 2.02343,0.82031 0.56508,0.52869 0.84763,1.20317 0.84766,2.02344 l 0,25.59375 c -3e-5,4.26564 -1.49482,7.87501 -4.48438,10.82813 -3.02606,2.98958 -6.63543,4.48437 -10.82812,4.48437 -4.22918,0 -7.83855,-1.49479 -10.82813,-4.48437 -2.98958,-2.98958 -4.48437,-6.59895 -4.48437,-10.82813 0,-4.22915 1.49479,-7.83852 4.48437,-10.82812 2.98958,-2.98956 6.59895,-4.48435 10.82813,-4.48438"
             style="letter-spacing:-3.4000001px"
             id="path6314"
             inkscape:connector-curvature="0" />
          <path
             d="m 151.21606,483.54941 c 0,1.07552 -0.38282,1.99609 -1.14843,2.76172 -0.74741,0.74739 -1.65886,1.12109 -2.73438,1.12109 -1.07552,0 -1.9961,-0.3737 -2.76172,-1.12109 -0.74739,-0.76563 -1.12109,-1.6862 -1.12109,-2.76172 0,-1.07552 0.3737,-1.98698 1.12109,-2.73438 0.76562,-0.76561 1.6862,-1.14843 2.76172,-1.14843 1.07552,0 1.98697,0.38282 2.73438,1.14843 0.76561,0.7474 1.14843,1.65886 1.14843,2.73438"
             style="letter-spacing:-4.36999989px"
             id="path6316"
             inkscape:connector-curvature="0" />
          <path
             d="m 173.88904,478.76425 c 0.82028,10e-6 1.49476,0.27345 2.02344,0.82031 0.54684,0.52866 0.82028,1.20314 0.82031,2.02344 -3e-5,0.80209 -0.30081,1.50391 -0.90235,2.10547 -2.82554,2.47917 -6.15236,3.71875 -9.98046,3.71875 -4.22918,0 -7.83856,-1.49479 -10.82813,-4.48437 -2.98959,-2.98958 -4.48438,-6.59895 -4.48437,-10.82813 -10e-6,-4.22915 1.49478,-7.83852 4.48437,-10.82812 2.98957,-2.98956 6.59895,-4.48435 10.82813,-4.48438 3.84633,3e-5 7.17315,1.23961 9.98046,3.71875 0.65623,0.58336 0.98435,1.30341 0.98438,2.16016 -3e-5,0.82033 -0.27347,1.50393 -0.82031,2.05078 -0.52868,0.5469 -1.20315,0.82033 -2.02344,0.82031 -0.69273,2e-5 -1.31252,-0.21873 -1.85938,-0.65625 -0.92971,-0.78383 -1.90497,-1.37628 -2.92578,-1.77734 -1.02085,-0.40102 -2.13283,-0.60154 -3.33593,-0.60157 -1.33075,3e-5 -2.57945,0.25524 -3.7461,0.76563 -1.16668,0.49221 -2.18751,1.1758 -3.0625,2.05078 -0.87501,0.85679 -1.56772,1.86851 -2.07812,3.03516 -0.4922,1.16668 -0.73829,2.41538 -0.73828,3.74609 -10e-6,1.33074 0.24608,2.57944 0.73828,3.74609 0.5104,1.16668 1.20311,2.18751 2.07812,3.0625 0.87499,0.85678 1.89582,1.54038 3.0625,2.05079 1.16665,0.49219 2.41535,0.73828 3.7461,0.73828 1.2031,0 2.31508,-0.1914 3.33593,-0.57422 1.02081,-0.40104 1.98696,-0.99348 2.89844,-1.77735 0.51039,-0.3828 1.11195,-0.58332 1.80469,-0.60156"
             style="letter-spacing:-3.75999999px"
             id="path6318"
             inkscape:connector-curvature="0" />
          <path
             d="m 208.08216,472.11972 c -3e-5,4.26564 -1.49482,7.87501 -4.48437,10.82813 -3.02607,2.98958 -6.63544,4.48437 -10.82813,4.48437 -4.22918,0 -7.83855,-1.49479 -10.82812,-4.48437 -2.98959,-2.98958 -4.48438,-6.59895 -4.48438,-10.82813 0,-4.22915 1.49479,-7.83852 4.48438,-10.82812 2.98957,-2.98956 6.59894,-4.48435 10.82812,-4.48438 4.19269,3e-5 7.80206,1.49482 10.82813,4.48438 1.49476,1.49481 2.60674,3.14455 3.33593,4.94921 0.74737,1.80471 1.13018,3.76434 1.14844,5.87891 m -15.3125,-9.59766 c -1.34897,3e-5 -2.60678,0.25524 -3.77344,0.76563 -1.16668,0.51044 -2.17839,1.20315 -3.03515,2.07812 -0.85678,0.8568 -1.54038,1.86851 -2.05078,3.03516 -0.4922,1.16668 -0.73829,2.40627 -0.73829,3.71875 0,1.31251 0.24609,2.5521 0.73829,3.71875 0.5104,1.16668 1.194,2.18751 2.05078,3.0625 0.85676,0.85678 1.86847,1.54037 3.03515,2.05078 1.16666,0.51042 2.42447,0.76563 3.77344,0.76563 1.33071,0 2.57941,-0.25521 3.74609,-0.76563 1.16665,-0.51041 2.17837,-1.20312 3.03516,-2.07812 0.87498,-0.87499 1.55857,-1.88671 2.05078,-3.03516 0.51039,-1.16665 0.7656,-2.40624 0.76563,-3.71875 -3e-5,-1.31248 -0.25524,-2.54295 -0.76563,-3.69141 -0.49221,-1.16664 -1.1758,-2.18747 -2.05078,-3.0625 -0.85679,-0.87497 -1.86851,-1.56768 -3.03516,-2.07812 -1.16668,-0.51039 -2.41538,-0.7656 -3.74609,-0.76563"
             style="letter-spacing:-3.75999999px"
             id="path6320"
             inkscape:connector-curvature="0" />
        </g>
      </g>
    </g>
  </g>
</svg>
